<svg id="Layer_1" data-name="Layer 1" xmlns="http://www.w3.org/2000/svg" viewBox="0 0 163.2 288.8"><defs><style>.cls-1,.cls-2{fill:#320094;}.cls-1,.cls-5{stroke:#070000;}.cls-1,.cls-5,.cls-6{stroke-miterlimit:10;}.cls-3{fill:#070000;}.cls-4{fill:#844444;}.cls-5{fill:#d2e900;}.cls-6{fill:#fff;stroke:#6a6666;stroke-width:2px;}.cls-7{fill:#6a6666;}.cls-8{fill:#00deff;}</style></defs><title>character_1</title><rect class="cls-1" x="51.5" y="65.5" width="25" height="85" transform="translate(84.6 213) rotate(-180)"/><rect class="cls-2" x="58.5" y="58.5" width="27" height="19" transform="translate(100.6 133) rotate(-180)"/><rect class="cls-3" x="90.6" y="178" width="37" height="90"/><rect class="cls-3" x="35.6" y="172" width="35" height="90"/><ellipse class="cls-4" cx="37.2" cy="268" rx="37.2" ry="20.8"/><rect class="cls-3" x="35.6" y="159" width="92" height="34"/><ellipse class="cls-4" cx="126" cy="268" rx="37.2" ry="20.8"/><rect class="cls-1" x="35.1" y="53.5" width="92.5" height="105.5"/><rect class="cls-5" x="51.1" y="0.5" width="56" height="51"/><ellipse class="cls-6" cx="66.6" cy="17" rx="6.5" ry="7.5"/><ellipse class="cls-6" cx="93.1" cy="17.5" rx="6.5" ry="7.5"/><polygon class="cls-7" points="86.6 17 74.6 17 74.6 17 86.6 17 86.6 17"/><rect class="cls-7" x="73.6" y="16" width="12" height="2"/><rect class="cls-7" x="99.6" y="16" width="7" height="2"/><rect class="cls-7" x="51.6" y="16" width="8" height="2"/><rect x="66.6" y="40" width="26" height="2"/><polygon class="cls-8" points="90.07 103.64 75.94 105.84 66.97 94.7 72.13 81.36 86.26 79.16 95.23 90.3 90.07 103.64"/><rect class="cls-1" x="132.1" y="62.5" width="26" height="88"/><rect class="cls-2" x="123.1" y="55.5" width="27" height="19"/></svg>